<?xml version="1.0" encoding="utf-8"?>
<!-- Generator: Adobe Illustrator 25.0.0, SVG Export Plug-In . SVG Version: 6.00 Build 0)  -->
<svg version="1.1" id="Layer_1" xmlns="http://www.w3.org/2000/svg" xmlns:xlink="http://www.w3.org/1999/xlink" x="0px" y="0px"
	 viewBox="0 0 1400 1400" style="enable-background:new 0 0 1400 1400;" xml:space="preserve">
<style type="text/css">
	.st0{fill:#013CAA;}
	.st1{fill:#005CFF;}
	.st2{fill:#03357C;}
	.st3{enable-background:new    ;}
</style>
<g id="logo">
	<path class="st0" d="M352.5,662.5l-65,37.5L20.6,545.9c0-7.5,0-20.9,0-21c0.2-2.6,0.7-5.2,1.4-7.6c4.1-13.2,16.4-22.7,31-22.7
		c2.4,0,4.7,0.3,7,0.8c2.8,0.6,5.6,1.6,8.1,2.9C68.1,498.4,352.3,662.4,352.5,662.5z"/>
	<path class="st1" d="M385,700c0,8.5-3.2,16.2-8.5,22c-1.5,1.7-3.2,3.2-5.1,4.5L85.6,891.7v-75l202-116.6l65-37.5
		c0.6,0.4,17.2,9.9,17.2,10c0.6,0.4,1.2,0.8,1.7,1.2c0.2,0.1,0.9,0.7,1.1,0.9c0.1,0.1,0.2,0.1,0.2,0.2c1.3,1,2.4,2.1,3.5,3.3
		C381.7,683.8,385,691.5,385,700z"/>
	<path class="st2" d="M85.5,583.4v308.2c0,0-18,10.3-18.9,10.8c-2.1,1-4.3,1.7-6.6,2.2s-4.6,0.8-7,0.8c-14.5,0-26.8-9.5-31-22.7
		c-1-3.1-1.5-6.4-1.5-9.8c0,0,0-264.2,0-327L85.5,583.4z"/>
</g>
<g>
	<g class="st3">
		<path d="M444.7,725.9h17.3c0,7.6,3,13.6,9.1,18.1c6,4.5,13.5,6.8,22.6,6.8c19.6,0,31-9.1,31-24.3c-0.4-39.8-77.4-14.1-77.2-67
			c0-10.9,4.4-19.7,13.1-26.4s19.4-10.1,32.1-10.1c12.9,0,23.8,3.4,32.4,10.1c8.6,6.8,12.8,16,12.8,27.7h-17.3
			c0-6.7-2.6-12.1-7.9-16c-5.3-3.9-12-6-20-6c-7.9,0-14.4,1.9-19.4,5.8c-5.2,3.9-7.7,9.2-7.7,15.9c0,17.9,19,21.1,38.2,26.1
			c19.3,5.2,38.5,12.9,38.9,40.2c0.1,12.5-4.4,22.3-13.3,29.2c-9.1,6.9-20.9,10.5-35.8,10.5C468,767,444.4,750.9,444.7,725.9z"/>
		<path d="M620.2,642.1h-35.1v56c0,30,12.6,46.4,35.1,49.8v17.3c-16.2-1.6-29-8-38.5-19.2c-9.5-11-14.3-26.8-14.4-47.3v-56.6h-20.8
			v-17h20.8v-44h17.8v44h35.1V642.1z"/>
		<path d="M624.2,694.7c0-13.1,3.3-25.1,9.7-36.2c6.4-11,15.2-19.7,26.2-26.1s23.1-9.5,36-9.5c12.9,0,24.9,3.1,35.9,9.5
			c11,6.4,19.7,15.1,26.1,26.1c6.4,11,9.5,23.1,9.5,36.2v69.6h-17.8v-29.8c-4.8,9.4-12,17.1-21.6,23c-9.8,6-20.5,9-32.1,9
			C657.5,767.3,623.3,733.6,624.2,694.7z M696.4,749.5c15.1,0,27.7-5.3,38.2-15.9c10.3-10.6,15.5-23.5,15.5-38.9
			c0-15.4-5.2-28.4-15.4-39c-10.3-10.5-23.1-15.8-38.3-15.8s-28.1,5.3-38.6,15.9S642,679.4,642,694.7c0,15.2,5.3,28.1,15.9,38.7
			C668.5,744.2,681.3,749.5,696.4,749.5z"/>
		<path d="M786.9,764.3V692c0-22.4,5.2-39.4,15.5-50.7c10.2-11.3,24.1-17,41.6-17c1.9,0,3.3,0.1,4.2,0.3v17c-1-0.1-2.3-0.3-4.2-0.3
			c-24.3,0-39.2,17.1-39.2,50.7v72.3H786.9z"/>
		<path d="M934.4,642.1h-35.1v56c0,30,12.6,46.4,35.1,49.8v17.3c-16.2-1.6-29-8-38.5-19.2c-9.5-11-14.3-26.8-14.4-47.3v-56.6h-20.8
			v-17h20.8v-44h17.8v44h35.1V642.1z"/>
	</g>
	<g class="st3">
		<path class="st0" d="M1095.9,694.7c0.8,38.9-32.9,72.6-71.5,71.8c-12.9,0-25-3.3-36-9.7c-11-6.4-19.8-15.1-26.2-26.1
			c-6.4-11-9.7-23-9.7-36c0-13.1,3.3-25.1,9.7-36.2c6.4-11,15.2-19.7,26.2-26.1c11-6.4,23.1-9.5,36-9.5c18.1,0,32.6,6.7,43.9,20
			v-73.5h27.6V694.7z M992.8,662.5c-8.6,8.8-12.9,19.6-12.9,32.2c0,12.6,4.2,23.4,12.8,32.2s19.2,13.2,31.8,13.2
			c12.6,0,23.1-4.4,31.7-13.2s12.8-19.6,12.8-32.2c0-12.6-4.2-23.4-12.8-32.2s-19.2-13.2-31.7-13.2
			C1011.8,649.3,1001.3,653.7,992.8,662.5z"/>
		<path class="st0" d="M1111.2,695c0-12.9,3.1-25,9.2-36c6.1-11,14.7-19.7,25.6-26.2c10.9-6.5,22.8-9.8,35.9-9.8
			c17.9,0,35.6,6.7,48.9,18.4c13.3,11.7,22.3,30.2,23,51c0,4.8-0.3,8.8-0.8,12.5h-112.6c1.1,10.5,5.4,18.9,13.2,25.4
			c7.6,6.7,17,9.9,28.3,9.9c13.6,0,24.7-4.6,33.4-14l32.6,0.3c-6.1,12.1-15,21.8-26.6,29.1c-11.7,7.3-24.5,11-38.5,11
			c-13.2,0-25.1-3.3-36.2-9.7c-11-6.4-19.7-15-26-26C1114.3,719.9,1111.2,707.9,1111.2,695z M1224.5,682.5
			c-2.6-9.7-7.6-17.5-15.4-23.8c-7.7-6.3-16.4-9.4-26.4-9.4c-10.6,0-19.7,3.1-27.2,9.2s-12.6,14.1-15.2,23.9H1224.5z"/>
		<path class="st0" d="M1311.8,764.3l-56-139.2h28.7l40.9,103.9l41.2-103.9h28.7L1339,764.3H1311.8z"/>
	</g>
</g>
</svg>
